<?xml version="1.0" encoding="UTF-8"?>
<svg enable-background="new 0 0 171.772 416.871" viewBox="0 0 171.772 416.871" xmlns="http://www.w3.org/2000/svg">
 <path d="m64.003 382.95c9.501 7.491-10.618 18.743 11.975 18.743 7.172 0 8.302-21.286 7.54-27.668l-19.515 8.925" fill="#ff7f00" fill-rule="evenodd"/>
 <path d="m78.195,374.028c.421,10.322-5.045,47.197 15.967,33.023 7.479,7.471 24.267,8.894 33.706,8.034-.395.036 18.548-.659 15.964,1.785 5.696-5.387-7.199-11.817-8.424-14.282-5.545-11.163-18.675-14.615-29.717-16.064-2.561-.336-5.397,0-7.982,0-4.053,0-1.208-5.966-2.66-7.141-3.281-2.653-11.628-4.844-16.854-5.355" fill="#ffbf00" fill-rule="evenodd"/>
 <path d="m105.69 393.66h20.401" fill="none" stroke="#000" stroke-linecap="square" stroke-miterlimit="10" stroke-width="1.8694"/>
 <path d="m109.24 397.23c7.655 1.479 20.041 1.572 26.612 6.247" fill="none" stroke="#000" stroke-linecap="square" stroke-miterlimit="10" stroke-width="1.8694"/>
 <path d="m110.13 404.38c5.912 1.777 15.271 4.619 18.626 9.818" fill="none" stroke="#000" stroke-linecap="square" stroke-miterlimit="10" stroke-width="1.8694"/>
 <path d="m112.79 404.38c9.306-0.618 17.901 5.233 24.836 8.926" fill="none" stroke="#000" stroke-linecap="square" stroke-miterlimit="10" stroke-width="1.8694"/>
 <path d="m89.727 387.42c2.671-1.247 5.626-1.268 7.982 0" fill="none" stroke="#000" stroke-linecap="square" stroke-miterlimit="10" stroke-width="1.8694"/>
 <path d="m.935.935" fill="none" stroke="#000" stroke-linecap="square" stroke-miterlimit="10" stroke-width="1.8694"/>
 <path d="m77.309,375.813c6.45,4.336 15.473,8.357 23.062,5.355 5.035-1.991 14.193-15.584 14.193-21.422 0-8.122 9.424-15.006 13.305-21.421 3.721-6.151 5.999-14.751 9.313-21.421 3.954-7.961 3.717-16.321 7.538-24.1 4.081-8.307 9.361-14.251 12.421-22.313 5.771-15.21 9.879-31.615 12.418-48.198 4.316-28.191.541-67.601-11.976-92.826-3.803-7.665-5.996-15.653-9.757-23.206-4.65-9.339-10.818-12.334-16.409-19.637-4.793-6.259-6.983-12.995-17.74-7.587-8.382,4.214-8.688,9.147-10.645,17.405-17.216,72.665-31.932,156.977-31.932,235.635 0,15.104.435,31.854 6.209,43.736" fill="#f4f4f4" fill-rule="evenodd" stroke="#000" stroke-miterlimit="10"/>
 <path d="m104.81 100.9c1.806-9.675 17.203-23.229 27.497-13.389-5.673-16.461-11.176-21.351-25.724-30.347-11.469-7.092-24.372-18.743-38.584-18.743-9.871 0-1.004 32.815 2.217 36.595 8.651 10.154 24.347 20.062 34.594 25.884" fill="#ffbf00" fill-rule="evenodd" stroke="#000" stroke-miterlimit="10"/>
 <path d="m37.619,375.813c-5.337,7.58-10.44,15.563 0,16.959 7.461.997 19.733-4.872 27.497-6.247 23.89-4.232 16.683-20.866 14.192-39.273-2.071-15.303-.118-34.763 5.322-49.091 6.066-15.98 15.905-27.995 18.627-45.52 1.245-8.016.658-16.11 0-24.1-.329-3.997-.888-7.552-.888-11.603 0-4.414 7.097-5.713 7.097-10.712 0-10.023-.2-13.563 2.661-22.313 2.259-6.908 2.72-15.808 2.66-23.207-.14-17.306-9.456-32.674-9.757-49.09-.217-11.768 18.415-39.273-3.549-39.273-13.021,0-25.134,8.352-34.592-5.355 .181,35.795-26.611,59.962-26.611,95.95 0,19.336 11.518,34.176 9.758,54.001-1.406,15.844-11.914,29.396-13.306,43.734-2.083,21.471 3.93,38.995 7.983,58.909 1.963,9.638 2.661,19.853 2.661,29.454 .002,10.047-8.062,18.533-9.755,26.777" fill="#323232" fill-rule="evenodd" stroke="#000" stroke-miterlimit="10"/>
 <path d="m66.664,38.426c4.83,1.187 11.086,3.518 14.192,8.926 3.158,5.499.866,12.679 5.322,16.958 4.971,4.774 27.741,4.538 35.479,1.785-8.111-6.446 5.837-15.39 7.097-24.099 1.735-12.001-6-22.236-15.077-27.67-14.802-8.861-49.062,4.614-47.013,24.1" fill="#181819" fill-rule="evenodd"/>
 <path d="m111.02 29.5c-12.662-10.976 31.03-23.206 39.028-23.206 14.669 0-7.558 9.039-12.419 11.603-8.399 4.431-17.786 8.709-26.609 11.603" fill="#323232" fill-rule="evenodd"/>
 <path d="m111.9 32.178c3.221-9.318 21.646-15.111 31.047-16.958-1.977 5.033-25.756 24.678-31.047 16.958" fill="#ffbf00" fill-rule="evenodd"/>
 <path d="m87.952,31.285c6.925.184 8.818,10.711 1.331,10.711-7.973,0-9.154-9.65-1.331-10.711" fill="#fff" fill-rule="evenodd"/>
 <path d="m89.727 33.071c11.89 4.803-11.198 7.186 0 0" fill="none" stroke="#000" stroke-linecap="square" stroke-miterlimit="10" stroke-width="1.8694"/>
 <path d="m29.41,391.879c-1.348-15.706 14.833-29.025 15.966-45.521 .974-14.178-1.886-35.031-8.426-48.199-5.578-11.229-4.112-39.021.887-49.09 6.944-13.989 11.785-30.766 9.313-47.305-2.859-19.125-12.043-34.668-7.983-55.339 3.056-15.564 9.916-28.631 15.079-41.95 3.035-7.833 3.74-22.221 13.305-17.405 6.599,3.322 16.688.334 23.949,1.339 3.396.47 7.982-3.16 7.982,3.57 0,5-3.152,7.088-7.096,9.818-7.725,5.349-12.387,4.462-16.853,13.389-6.698,13.389-14.264,32.542-15.079,48.198-.832,15.967 7.663,31.238 7.982,48.198 .643,34.107-18.293,63.295-12.418,97.289 2.606,15.08 5.322,29.12 5.322,45.521 .002,16.913-19.572,30.07-31.93,37.487" fill="#181819" fill-rule="evenodd" stroke="#000" stroke-miterlimit="10"/>
 <path d="m100.37,108.046c-14.283-6.262-23.161,28.736-29.271,37.487-9.316,13.343-21.055,27.907-31.933,41.95-17.599,22.721-31.169,64.584-27.497,96.396 .578,4.999 1.383,8.771 3.548,13.388 9.343-5.488 30.233-25.735 23.506-39.271-2.394-4.816 12.942-10.873 15.079-15.174 2.723-5.481 7.675-15.313 11.975-19.637 12.059-12.124 20.401-23.195 20.401-40.61 0-7.631 9.704-41.076-2.661-42.396 .928-9.067 6.104-8.369 10.645-13.389 4.502-4.979 6.273-11.829 6.208-18.744" fill="#181819" fill-rule="evenodd" stroke="#000" stroke-miterlimit="10"/>
 <path d="m83.518 140.18c11.953 1.277 3.314 33.823 2.661 41.058-1.758 19.451-7.933 26.019-19.515 41.058-3.703 4.808-6.365 16.591-11.531 19.189-4.22 2.123-15.281 11.88-16.854 15.62-2.726 6.483-1.629 15.548-5.321 22.315-4.03 7.386-8.962 14.041-17.74 16.957 1.571-25.981 10.305-52.269 20.401-77.651 3.498-8.793 7.218-16.681 11.531-24.992 2.324-4.479 12.418-17.634 12.418-21.422 0-5.868 10.988-11.184 14.191-15.173 2.908-3.618 6.916-11.688 9.759-16.959" fill="#e5e5e5" fill-rule="evenodd"/>
</svg>
